 <svg  version="1.0" xmlns="http://www.w3.org/2000/svg"  width="1032.000000pt" height="1032.000000pt" viewBox="0 0 1032.000000 1032.000000"  preserveAspectRatio="xMidYMid meet">  <g transform="translate(0.000000,1032.000000) scale(0.100000,-0.100000)" fill="#046c19" stroke="none"> <path d="M954 9756 c-3 -7 24 -69 59 -137 66 -126 181 -349 314 -609 41 -80 98 -189 126 -243 27 -54 60 -103 71 -109 12 -7 50 -20 86 -30 55 -15 119 -19 415 -23 193 -3 358 -8 367 -11 20 -6 64 -78 171 -284 186 -358 226 -435 309 -599 48 -95 108 -210 132 -255 24 -44 85 -162 136 -261 222 -431 271 -526 325 -630 32 -60 102 -195 155 -300 54 -104 122 -235 151 -290 30 -55 65 -125 79 -155 14 -30 40 -82 58 -115 19 -33 86 -161 149 -285 64 -124 137 -265 163 -315 26 -49 95 -183 154 -297 58 -114 115 -224 127 -245 28 -50 109 -210 109 -216 0 -3 17 -36 39 -74 21 -37 90 -169 153 -293 64 -124 130 -252 148 -285 18 -33 68 -130 111 -215 44 -85 99 -193 124 -240 24 -47 45 -96 45 -109 0 -24 -141 -271 -167 -293 -25 -21 -45 3 -118 148 -77 153 -258 502 -340 659 -29 55 -104 199 -166 320 -116 226 -242 470 -302 585 -18 36 -80 155 -137 265 -56 110 -127 247 -158 305 -58 112 -142 275 -317 615 -59 116 -128 248 -153 295 -25 47 -80 153 -122 235 -106 207 -252 489 -318 615 -30 58 -95 184 -145 280 -49 96 -117 229 -152 295 -35 66 -103 199 -153 295 -49 96 -108 209 -130 250 -23 41 -46 85 -51 96 -7 15 -32 29 -83 45 l-73 24 -618 3 c-549 2 -618 1 -623 -13 -4 -8 -2 -21 4 -28 12 -16 77 -138 190 -357 180 -352 266 -518 327 -635 72 -136 166 -319 332 -645 63 -124 119 -229 123 -235 4 -5 55 -102 113 -215 57 -113 153 -299 212 -415 59 -115 126 -246 150 -290 23 -44 84 -161 135 -260 117 -228 201 -387 210 -400 4 -5 18 -35 31 -65 13 -30 40 -84 60 -120 20 -36 85 -159 144 -275 59 -115 131 -255 160 -310 29 -55 93 -179 143 -275 111 -217 224 -437 310 -600 36 -69 104 -201 152 -295 89 -174 188 -366 313 -605 39 -74 105 -202 147 -285 42 -82 106 -206 142 -275 109 -208 226 -435 330 -639 54 -106 116 -226 137 -265 21 -39 58 -108 81 -154 26 -51 50 -87 64 -92 39 -14 133 -40 148 -40 14 0 94 123 157 240 13 25 30 52 37 61 8 8 14 18 14 22 0 3 34 63 75 132 41 70 75 128 75 131 0 3 25 46 56 97 31 51 61 101 66 112 5 11 14 29 21 40 7 11 33 55 57 98 25 43 55 94 67 115 13 20 26 44 29 52 4 8 33 58 64 110 31 52 83 142 115 200 53 94 96 167 133 225 6 11 15 27 19 35 5 13 91 161 130 225 7 11 16 27 20 35 4 8 54 96 111 195 57 99 116 200 130 225 14 25 33 57 43 72 11 14 19 29 19 33 0 3 33 61 72 128 40 67 77 131 83 142 13 24 82 144 110 191 11 18 33 57 49 86 16 29 44 77 62 106 19 29 34 56 34 60 0 4 16 31 35 61 19 29 35 55 35 57 0 3 30 57 68 120 37 64 82 143 101 177 18 34 46 81 62 105 16 24 29 45 29 48 0 3 49 89 108 192 60 103 195 338 302 522 106 184 223 387 260 450 37 63 183 315 324 560 142 245 262 452 266 460 5 8 108 186 228 395 575 1001 796 1381 810 1397 14 16 12 19 -22 33 -106 44 -122 45 -756 43 l-604 -3 -30 -45 c-17 -24 -64 -105 -106 -180 -82 -144 -155 -270 -256 -442 -35 -59 -64 -110 -64 -113 0 -3 -26 -49 -59 -103 -32 -53 -70 -117 -83 -142 -14 -25 -62 -107 -107 -182 -66 -110 -87 -138 -104 -138 -19 0 -38 31 -122 197 -55 109 -139 271 -187 362 -49 91 -88 168 -88 172 0 4 -16 36 -36 71 -20 34 -93 173 -162 308 -69 135 -152 297 -186 360 -104 195 -138 268 -134 287 3 17 61 18 1255 23 1209 5 1252 6 1272 24 11 10 69 103 127 205 59 102 119 206 134 231 15 25 99 169 185 320 87 151 164 282 172 291 21 25 15 39 -24 55 -107 45 -42 44 -2649 44 -1969 0 -2464 -3 -2464 -13 0 -15 152 -316 284 -559 20 -37 36 -71 36 -77 0 -5 17 -40 38 -78 22 -37 75 -138 119 -223 44 -85 118 -227 163 -315 46 -88 121 -234 167 -325 47 -91 89 -170 94 -176 5 -6 15 -30 24 -53 17 -49 16 -51 -80 -216 -29 -49 -93 -160 -142 -245 -50 -85 -101 -174 -114 -197 -13 -23 -45 -78 -71 -122 -27 -44 -48 -83 -48 -85 0 -3 -18 -31 -40 -64 -21 -33 -49 -79 -62 -103 -47 -92 -80 -119 -106 -86 -5 6 -31 55 -57 107 -71 144 -115 229 -148 290 -16 30 -72 138 -125 240 -52 102 -116 226 -142 275 -26 50 -88 169 -138 265 -220 430 -299 582 -351 680 -31 58 -87 166 -124 240 -38 74 -85 167 -106 205 -20 39 -60 117 -90 175 -29 58 -59 116 -66 131 -8 14 -39 71 -69 128 -31 57 -58 112 -61 122 -7 20 -63 41 -170 64 -101 21 -2093 23 -2101 1z m5110 -3192 c22 -8 83 -121 378 -694 53 -102 114 -220 137 -264 28 -52 40 -85 35 -98 -3 -11 -37 -72 -75 -135 -38 -64 -69 -117 -69 -119 0 -2 -21 -38 -46 -81 -54 -90 -77 -131 -112 -193 -23 -42 -132 -230 -180 -310 -11 -19 -43 -73 -71 -120 -28 -47 -60 -96 -70 -110 -20 -25 -20 -25 -40 -5 -11 11 -50 79 -87 150 -36 72 -98 191 -137 265 -38 74 -117 227 -175 340 -57 113 -111 214 -118 225 -8 11 -14 34 -14 52 0 33 14 58 375 683 40 69 107 186 150 260 73 128 94 160 100 160 2 0 11 -3 19 -6z"/> </g> </svg> 